# xmcd
#
# Track frame offsets:
#	150
#	12515
#	27097
#	44305
#	56855
#	71005
#	84490
#	94672
#	109440
#	124735
#	138080
#	149180
#	165227
#	177362
#
# Disc length: 2595 seconds
#
# Revision: 2
# Processed by: cddbd v1.5.2PL0 Copyright (c) Steve Scherf et al.
# Submitted via: EZCDAudioConverter 7.1.0.1
#
DISCID=c50a210e
DTITLE=JOAQUIM and MANUEL - BOATE AZUL [CD NH 2214)  (SINAI GRAVAÇÕES)
DYEAR=2002
DGENRE=SERTANEJO
TTITLE0=BOATE AZUL (BY GILMAR SINISTRO)
TTITLE1=SETE DIAS (BY GILMAR SINISTRO)
TTITLE2=SAUDADE DE MIM (BY GILMAR SINISTRO)
TTITLE3=O PINGUÇO DA PORTEIRA (BY GILMAR SINISTRO)
TTITLE4=PORTO SOLIDÃO (BY GILMAR SINISTRO)
TTITLE5=PULA, PULA CORAÇÃO (BY GILMAR SINISTRO)
TTITLE6=SOLIDÃO A TOA (BY GILMAR SINISTRO)
TTITLE7=SUITE 26 (BY GILMAR SINISTRO)
TTITLE8=DOIS PASSARINHOS (BY GILMAR SINISTRO)
TTITLE9=LOIRA GOSTOSA (BY GILMAR SINISTRO)
TTITLE10=SOLIDÃO DE AMIGOS (BY GILMAR SINISTRO)
TTITLE11=GOSTO DO SEU JEITO DE AMAR (BY GILMAR SINISTRO)
TTITLE12=FICA COMIGO (BY GILMAR SINISTRO)
TTITLE13=O CAMINHO DO AMOR (BY GILMAR SINISTRO)
EXTD=
EXTT0=
EXTT1=
EXTT2=
EXTT3=
EXTT4=
EXTT5=
EXTT6=
EXTT7=
EXTT8=
EXTT9=
EXTT10=
EXTT11=
EXTT12=
EXTT13=
PLAYORDER=
